#N canvas 363 108 1162 634 10;
#X obj 222 108 unpackOSC;
#X msg 31 108 \; pd dsp 1;
#X obj 31 82 loadbang;
#X obj 222 88 udpreceive 9001;
#X obj 220 129 route /ser;
#X floatatom 220 159 5 0 0 0 - - -;
#X obj 247 210 sel 1 2;
#X obj 220 308 int;
#X msg 247 239 1;
#X msg 279 239 -1;
#X obj 220 181 t b f;
#X obj 251 307 +;
#X floatatom 251 338 5 0 6000 0 - - -;
#N canvas 0 22 450 300 (subpatch) 0;
#X array sample-table 2.646e+06 float 0;
#X coords 0 1.02 2.646e+06 -1.02 200 130 1;
#X restore 545 145 graph;
#X obj 567 34 loadbang;
#X text 1129 701 updated for Pd version 0.33;
#X obj 567 83 soundfiler;
#X obj 251 410 *~ 0.3;
#X floatatom 427 389 5 0 0 0 - - -;
#X obj 427 221 vsl 15 128 0 127 0 0 empty empty empty 0 -9 0 10 -262144
-1 -1 12700 1;
#X obj 427 365 / 127;
#X obj 251 468 dac~;
#N canvas 728 283 834 712 scratch_the_monkey 0;
#X obj 151 544 hip~ 5;
#X floatatom 157 71 0 0 100 0 - - -;
#X obj 157 96 * 441;
#X obj 152 413 +~ 1;
#X text 201 68 <-- chunk size (100ths of a second);
#X obj 152 491 *~;
#X obj 158 244 line~;
#X obj 158 194 * 441;
#X floatatom 158 169 0 0 6000 0 - - -;
#X obj 158 219 pack 0 100;
#X text 192 170 <-- read point in 100ths of a second;
#X obj 152 442 +~;
#X obj 208 441 samphold~;
#X obj 152 341 samphold~;
#X obj 152 388 *~;
#X obj 317 402 r~ phase;
#X obj 550 243 s~ phase;
#X obj 240 341 r~ phase;
#X obj 174 365 r~ phase;
#X obj 228 416 r~ phase;
#X obj 209 115 s chunk-size;
#X floatatom 550 89 0 0 0 0 - - -;
#X obj 209 90 * 0.01;
#X text 321 91 chunk size;
#X text 321 113 in seconds;
#X obj 561 144 r chunk-size;
#X obj 561 169 t b f;
#X obj 550 193 /;
#X obj 550 66 loadbang;
#X obj 317 426 -~ 0.5;
#X obj 317 450 *~ 0.5;
#X obj 317 473 cos~;
#X obj 550 114 expr pow(2 \, $f1/120);
#X text 739 114 speed change;
#X obj 550 217 phasor~;
#X obj 157 143 s chunk-size-samples;
#X text 343 145 ... and in samples;
#X obj 158 267 s~ read-pt;
#X obj 209 393 r~ read-pt;
#X obj 637 236 +~ 0.5;
#X obj 638 262 wrap~;
#X obj 638 287 s~ phase2;
#X obj 152 316 r chunk-size-samples;
#X obj 406 424 +~ 1;
#X obj 406 502 *~;
#X obj 406 453 +~;
#X obj 461 452 samphold~;
#X obj 406 352 samphold~;
#X obj 406 399 *~;
#X obj 571 437 -~ 0.5;
#X obj 571 461 *~ 0.5;
#X obj 571 484 cos~;
#X obj 462 404 r~ read-pt;
#X obj 406 327 r chunk-size-samples;
#X obj 495 353 r~ phase2;
#X obj 428 376 r~ phase2;
#X obj 571 413 r~ phase2;
#X obj 471 427 r~ phase2;
#X obj 151 520 +~;
#X text 585 89 <-- transposition \, halftones/10;
#X text 588 192 loop frequency;
#X text 698 223 second phase signal;
#X text 698 243 out of phase from;
#X text 697 264 first one;
#X text 202 298 copy 1;
#X text 459 307 copy 2;
#X obj 159 620 outlet~;
#X obj 152 467 tabread4~ sample-table;
#X obj 406 478 tabread4~ sample-table;
#X obj 66 42 inlet;
#X obj 201 22 inlet;
#X connect 0 0 66 0;
#X connect 1 0 2 0;
#X connect 1 0 22 0;
#X connect 2 0 35 0;
#X connect 3 0 11 0;
#X connect 5 0 58 0;
#X connect 6 0 37 0;
#X connect 7 0 9 0;
#X connect 8 0 7 0;
#X connect 9 0 6 0;
#X connect 11 0 67 0;
#X connect 12 0 11 1;
#X connect 13 0 14 0;
#X connect 14 0 3 0;
#X connect 15 0 29 0;
#X connect 17 0 13 1;
#X connect 18 0 14 1;
#X connect 19 0 12 1;
#X connect 21 0 32 0;
#X connect 22 0 20 0;
#X connect 25 0 26 0;
#X connect 26 0 27 0;
#X connect 26 1 27 1;
#X connect 27 0 34 0;
#X connect 28 0 21 0;
#X connect 29 0 30 0;
#X connect 30 0 31 0;
#X connect 31 0 5 1;
#X connect 32 0 27 0;
#X connect 34 0 16 0;
#X connect 34 0 39 0;
#X connect 38 0 12 0;
#X connect 39 0 40 0;
#X connect 40 0 41 0;
#X connect 42 0 13 0;
#X connect 43 0 45 0;
#X connect 44 0 58 1;
#X connect 45 0 68 0;
#X connect 46 0 45 1;
#X connect 47 0 48 0;
#X connect 48 0 43 0;
#X connect 49 0 50 0;
#X connect 50 0 51 0;
#X connect 51 0 44 1;
#X connect 52 0 46 0;
#X connect 53 0 47 0;
#X connect 54 0 47 1;
#X connect 55 0 48 1;
#X connect 56 0 49 0;
#X connect 57 0 46 1;
#X connect 58 0 0 0;
#X connect 67 0 5 0;
#X connect 68 0 44 0;
#X connect 69 0 8 0;
#X connect 70 0 1 0;
#X restore 251 371 pd scratch_the_monkey;
#X msg 567 57 read chimps.wav sample-table;
#X obj 427 159 loadbang;
#X msg 427 188 127;
#X obj 342 297 loadbang;
#X msg 342 326 10;
#X floatatom 345 350 5 0 0 0 - - -;
#X text 341 276 grain size;
#X text 139 340 sample position;
#X connect 0 0 4 0;
#X connect 2 0 1 0;
#X connect 3 0 0 0;
#X connect 4 0 5 0;
#X connect 5 0 10 0;
#X connect 6 0 8 0;
#X connect 6 1 9 0;
#X connect 7 0 11 0;
#X connect 8 0 11 1;
#X connect 9 0 11 1;
#X connect 10 0 7 0;
#X connect 10 1 6 0;
#X connect 11 0 7 1;
#X connect 11 0 12 0;
#X connect 12 0 22 0;
#X connect 14 0 23 0;
#X connect 17 0 21 0;
#X connect 17 0 21 1;
#X connect 18 0 17 1;
#X connect 19 0 20 0;
#X connect 20 0 18 0;
#X connect 22 0 17 0;
#X connect 23 0 16 0;
#X connect 24 0 25 0;
#X connect 25 0 19 0;
#X connect 26 0 27 0;
#X connect 27 0 28 0;
#X connect 28 0 22 1;
